<svg width="36" height="36" viewBox="0 0 36 36" fill="none" xmlns="http://www.w3.org/2000/svg">
<g clip-path="url(#clip0_2143_249)">
<path d="M26.7188 18C26.7202 20.0518 25.9974 22.0382 24.6778 23.6093C23.3582 25.1804 21.5265 26.2355 19.5054 26.5885C17.4842 26.9416 15.4033 26.57 13.6292 25.5393C11.8552 24.5086 10.5018 22.8849 9.80746 20.9541L4.82056 24.9436C6.3712 27.8913 8.86479 30.2344 11.9031 31.5988C14.9415 32.9632 18.3494 33.2703 21.5827 32.4709C24.816 31.6715 27.6883 29.8119 29.7408 27.1888C31.7934 24.5658 32.9078 21.3307 32.9063 18" fill="#00AC47"/>
<path d="M26.7188 18C26.7177 19.3871 26.3851 20.7539 25.7488 21.9865C25.1125 23.2191 24.1909 24.2817 23.0608 25.086L27.991 29.0302C29.537 27.6383 30.7733 25.9372 31.6201 24.0371C32.4668 22.137 32.905 20.0802 32.9063 18" fill="#4285F4"/>
<path d="M9.28125 18C9.28341 16.9922 9.46147 15.9925 9.80741 15.0459L4.82051 11.0564C3.68661 13.1952 3.09375 15.5792 3.09375 18C3.09375 20.4208 3.68661 22.8048 4.82051 24.9436L9.80741 20.9541C9.46147 20.0075 9.28341 19.0078 9.28125 18Z" fill="#FFBA00"/>
<path d="M18 9.28125C19.8449 9.28176 21.6414 9.87132 23.1278 10.964L27.6953 6.70106C25.9998 5.23919 23.996 4.1791 21.8335 3.59991C19.671 3.02072 17.4056 2.93738 15.2064 3.35611C13.0072 3.77483 10.931 4.68482 9.13261 6.01815C7.33426 7.35148 5.86024 9.07373 4.82056 11.0564L9.80746 15.0459C10.4156 13.3599 11.5283 11.9021 12.9941 10.8707C14.4599 9.83935 16.2077 9.28437 18 9.28125Z" fill="#EA4435"/>
<path d="M32.9062 16.875V18L30.375 21.9375H18.5625V15.75H31.7812C32.0796 15.75 32.3658 15.8685 32.5767 16.0795C32.7877 16.2905 32.9062 16.5766 32.9062 16.875Z" fill="#4285F4"/>
</g>
<defs>
<clipPath id="clip0_2143_249">
<rect width="36" height="36" fill="white"/>
</clipPath>
</defs>
</svg>
