<svg width="237" height="84" viewBox="0 0 237 84" fill="none" xmlns="http://www.w3.org/2000/svg">
<path d="M104.118 36.276C102.999 36.276 101.887 36.1303 100.783 35.839C99.679 35.5323 98.7437 35.103 97.977 34.551L99.426 31.699C100.039 32.1437 100.752 32.4963 101.565 32.757C102.378 33.0177 103.198 33.148 104.026 33.148C104.961 33.148 105.697 32.964 106.234 32.596C106.771 32.228 107.039 31.722 107.039 31.078C107.039 30.4647 106.801 29.9817 106.326 29.629C105.851 29.2763 105.084 29.1 104.026 29.1H102.324V26.639L106.809 21.556L107.223 22.89H98.782V19.9H110.052V22.315L105.59 27.398L103.704 26.317H104.785C106.763 26.317 108.258 26.7617 109.27 27.651C110.282 28.5403 110.788 29.6827 110.788 31.078C110.788 31.9827 110.55 32.8337 110.075 33.631C109.6 34.413 108.871 35.0493 107.89 35.54C106.909 36.0307 105.651 36.276 104.118 36.276ZM118.166 19.624C119.654 19.624 120.934 19.9307 122.007 20.544C123.081 21.1573 123.909 22.0543 124.491 23.235C125.074 24.4003 125.365 25.857 125.365 27.605C125.365 29.4603 125.013 31.032 124.307 32.32C123.617 33.608 122.659 34.5893 121.432 35.264C120.206 35.9387 118.78 36.276 117.154 36.276C116.311 36.276 115.498 36.184 114.716 36C113.934 35.816 113.26 35.54 112.692 35.172L114.072 32.435C114.517 32.7417 114.992 32.9563 115.498 33.079C116.004 33.1863 116.533 33.24 117.085 33.24C118.465 33.24 119.562 32.8183 120.374 31.975C121.202 31.1317 121.616 29.882 121.616 28.226C121.616 27.95 121.609 27.6433 121.593 27.306C121.578 26.9687 121.54 26.6313 121.478 26.294L122.49 27.26C122.23 27.858 121.862 28.364 121.386 28.778C120.911 29.1767 120.359 29.4833 119.73 29.698C119.102 29.8973 118.396 29.997 117.614 29.997C116.587 29.997 115.652 29.79 114.808 29.376C113.98 28.962 113.313 28.3793 112.807 27.628C112.317 26.8767 112.071 25.995 112.071 24.983C112.071 23.879 112.34 22.9283 112.876 22.131C113.428 21.3337 114.164 20.7203 115.084 20.291C116.02 19.8463 117.047 19.624 118.166 19.624ZM118.396 22.407C117.86 22.407 117.392 22.5067 116.993 22.706C116.595 22.89 116.28 23.166 116.05 23.534C115.82 23.8867 115.705 24.3083 115.705 24.799C115.705 25.535 115.951 26.1253 116.441 26.57C116.947 26.9993 117.614 27.214 118.442 27.214C118.979 27.214 119.454 27.1143 119.868 26.915C120.298 26.7003 120.627 26.409 120.857 26.041C121.087 25.673 121.202 25.259 121.202 24.799C121.202 24.339 121.087 23.9327 120.857 23.58C120.643 23.212 120.328 22.9283 119.914 22.729C119.5 22.5143 118.994 22.407 118.396 22.407ZM134.495 36V23.626H144.408V26.57H137.255L138.06 25.788V36H134.495ZM153.6 36.184C152.557 36.184 151.645 35.954 150.863 35.494C150.081 35.034 149.468 34.3363 149.023 33.401C148.594 32.4503 148.379 31.2543 148.379 29.813C148.379 28.3563 148.586 27.1603 149 26.225C149.414 25.2897 150.012 24.592 150.794 24.132C151.576 23.672 152.511 23.442 153.6 23.442C154.765 23.442 155.808 23.7103 156.728 24.247C157.663 24.7683 158.399 25.5043 158.936 26.455C159.488 27.4057 159.764 28.525 159.764 29.813C159.764 31.1163 159.488 32.2433 158.936 33.194C158.399 34.1447 157.663 34.8807 156.728 35.402C155.808 35.9233 154.765 36.184 153.6 36.184ZM146.286 40.462V23.626H149.713V26.156L149.644 29.836L149.874 33.493V40.462H146.286ZM152.979 33.24C153.577 33.24 154.106 33.102 154.566 32.826C155.041 32.55 155.417 32.159 155.693 31.653C155.984 31.1317 156.13 30.5183 156.13 29.813C156.13 29.0923 155.984 28.479 155.693 27.973C155.417 27.467 155.041 27.076 154.566 26.8C154.106 26.524 153.577 26.386 152.979 26.386C152.381 26.386 151.844 26.524 151.369 26.8C150.894 27.076 150.518 27.467 150.242 27.973C149.966 28.479 149.828 29.0923 149.828 29.813C149.828 30.5183 149.966 31.1317 150.242 31.653C150.518 32.159 150.894 32.55 151.369 32.826C151.844 33.102 152.381 33.24 152.979 33.24ZM169.483 36V33.585L169.253 33.056V28.732C169.253 27.9653 169.015 27.3673 168.54 26.938C168.08 26.5087 167.367 26.294 166.401 26.294C165.741 26.294 165.09 26.4013 164.446 26.616C163.817 26.8153 163.28 27.0913 162.836 27.444L161.548 24.937C162.222 24.4617 163.035 24.0937 163.986 23.833C164.936 23.5723 165.902 23.442 166.884 23.442C168.77 23.442 170.234 23.8867 171.277 24.776C172.319 25.6653 172.841 27.053 172.841 28.939V36H169.483ZM165.711 36.184C164.745 36.184 163.917 36.023 163.227 35.701C162.537 35.3637 162.008 34.9113 161.64 34.344C161.272 33.7767 161.088 33.1403 161.088 32.435C161.088 31.699 161.264 31.055 161.617 30.503C161.985 29.951 162.56 29.5217 163.342 29.215C164.124 28.893 165.143 28.732 166.401 28.732H169.69V30.825H166.792C165.948 30.825 165.366 30.963 165.044 31.239C164.737 31.515 164.584 31.86 164.584 32.274C164.584 32.734 164.76 33.102 165.113 33.378C165.481 33.6387 165.979 33.769 166.608 33.769C167.206 33.769 167.742 33.631 168.218 33.355C168.693 33.0637 169.038 32.642 169.253 32.09L169.805 33.746C169.544 34.5433 169.069 35.149 168.379 35.563C167.689 35.977 166.799 36.184 165.711 36.184ZM175.957 36V23.626H179.522V28.456H184.904V23.626H188.492V36H184.904V31.377H179.522V36H175.957ZM191.927 36V23.626H195.492V30.986L201.518 23.626H204.807V36H201.242V28.64L195.239 36H191.927ZM208.256 36V23.626H211.821V33.056H216.812V23.626H220.4V36H208.256ZM218.859 38.668V35.954L219.687 36H216.812V33.056H222.194V38.668H218.859ZM231.857 36V33.585L231.627 33.056V28.732C231.627 27.9653 231.389 27.3673 230.914 26.938C230.454 26.5087 229.741 26.294 228.775 26.294C228.115 26.294 227.464 26.4013 226.82 26.616C226.191 26.8153 225.654 27.0913 225.21 27.444L223.922 24.937C224.596 24.4617 225.409 24.0937 226.36 23.833C227.31 23.5723 228.276 23.442 229.258 23.442C231.144 23.442 232.608 23.8867 233.651 24.776C234.693 25.6653 235.215 27.053 235.215 28.939V36H231.857ZM228.085 36.184C227.119 36.184 226.291 36.023 225.601 35.701C224.911 35.3637 224.382 34.9113 224.014 34.344C223.646 33.7767 223.462 33.1403 223.462 32.435C223.462 31.699 223.638 31.055 223.991 30.503C224.359 29.951 224.934 29.5217 225.716 29.215C226.498 28.893 227.517 28.732 228.775 28.732H232.064V30.825H229.166C228.322 30.825 227.74 30.963 227.418 31.239C227.111 31.515 226.958 31.86 226.958 32.274C226.958 32.734 227.134 33.102 227.487 33.378C227.855 33.6387 228.353 33.769 228.982 33.769C229.58 33.769 230.116 33.631 230.592 33.355C231.067 33.0637 231.412 32.642 231.627 32.09L232.179 33.746C231.918 34.5433 231.443 35.149 230.753 35.563C230.063 35.977 229.173 36.184 228.085 36.184Z" fill="#2A2A2A"/>
<path d="M102.959 64.114C101.996 64.114 101.084 63.962 100.223 63.658C99.3743 63.3413 98.6903 62.9233 98.171 62.404L98.836 61.321C99.2667 61.7643 99.843 62.1317 100.565 62.423C101.3 62.7143 102.098 62.86 102.959 62.86C104.061 62.86 104.903 62.6193 105.486 62.138C106.081 61.6567 106.379 61.0107 106.379 60.2C106.379 59.3893 106.088 58.7433 105.505 58.262C104.935 57.7807 104.029 57.54 102.788 57.54H101.838V56.533L105.942 51.384L106.132 51.916H98.722V50.7H107.272V51.669L103.168 56.818L102.503 56.381H103.016C104.612 56.381 105.803 56.7357 106.588 57.445C107.386 58.1543 107.785 59.0663 107.785 60.181C107.785 60.9283 107.608 61.5997 107.253 62.195C106.898 62.7903 106.36 63.259 105.638 63.601C104.929 63.943 104.036 64.114 102.959 64.114ZM113.855 50.586C115.033 50.586 116.027 50.852 116.838 51.384C117.648 51.9033 118.263 52.657 118.681 53.645C119.099 54.633 119.308 55.83 119.308 57.236C119.308 58.7307 119.048 59.991 118.529 61.017C118.022 62.043 117.313 62.8157 116.401 63.335C115.489 63.8543 114.431 64.114 113.228 64.114C112.632 64.114 112.062 64.057 111.518 63.943C110.986 63.829 110.504 63.6453 110.074 63.392L110.625 62.29C110.967 62.518 111.359 62.6827 111.803 62.784C112.259 62.8727 112.727 62.917 113.209 62.917C114.64 62.917 115.78 62.461 116.629 61.549C117.49 60.637 117.921 59.2753 117.921 57.464C117.921 57.1727 117.902 56.8243 117.864 56.419C117.838 56.0137 117.769 55.6083 117.655 55.203L118.13 55.564C118.003 56.2227 117.731 56.7863 117.313 57.255C116.907 57.711 116.401 58.0593 115.793 58.3C115.197 58.5407 114.532 58.661 113.798 58.661C112.924 58.661 112.145 58.4963 111.461 58.167C110.789 57.8377 110.264 57.3753 109.884 56.78C109.504 56.1847 109.314 55.4817 109.314 54.671C109.314 53.835 109.51 53.113 109.903 52.505C110.295 51.897 110.834 51.4283 111.518 51.099C112.214 50.757 112.993 50.586 113.855 50.586ZM113.912 51.745C113.278 51.745 112.715 51.8653 112.221 52.106C111.739 52.334 111.359 52.6633 111.081 53.094C110.802 53.5247 110.663 54.0377 110.663 54.633C110.663 55.507 110.96 56.2037 111.556 56.723C112.164 57.2423 112.981 57.502 114.007 57.502C114.691 57.502 115.286 57.3753 115.793 57.122C116.312 56.8687 116.711 56.5203 116.99 56.077C117.281 55.6337 117.427 55.1397 117.427 54.595C117.427 54.101 117.294 53.6387 117.028 53.208C116.762 52.7773 116.369 52.429 115.85 52.163C115.33 51.8843 114.684 51.745 113.912 51.745ZM126.44 67.781C125.528 67.781 124.654 67.648 123.818 67.382C122.982 67.116 122.304 66.736 121.785 66.242L122.469 65.216C122.937 65.634 123.514 65.9633 124.198 66.204C124.894 66.4573 125.629 66.584 126.402 66.584C127.668 66.584 128.599 66.2863 129.195 65.691C129.79 65.1083 130.088 64.1963 130.088 62.955V60.466L130.278 58.756L130.145 57.046V54.025H131.437V62.784C131.437 64.5067 131.012 65.767 130.164 66.565C129.328 67.3757 128.086 67.781 126.44 67.781ZM126.193 63.62C125.243 63.62 124.388 63.4173 123.628 63.012C122.868 62.594 122.266 62.0177 121.823 61.283C121.392 60.5483 121.177 59.706 121.177 58.756C121.177 57.806 121.392 56.97 121.823 56.248C122.266 55.5133 122.868 54.9433 123.628 54.538C124.388 54.1327 125.243 53.93 126.193 53.93C127.079 53.93 127.877 54.1137 128.587 54.481C129.296 54.8483 129.86 55.393 130.278 56.115C130.696 56.837 130.905 57.7173 130.905 58.756C130.905 59.7947 130.696 60.675 130.278 61.397C129.86 62.119 129.296 62.67 128.587 63.05C127.877 63.43 127.079 63.62 126.193 63.62ZM126.326 62.423C127.06 62.423 127.713 62.271 128.283 61.967C128.853 61.6503 129.302 61.2197 129.632 60.675C129.961 60.1177 130.126 59.478 130.126 58.756C130.126 58.034 129.961 57.4007 129.632 56.856C129.302 56.3113 128.853 55.887 128.283 55.583C127.713 55.2663 127.06 55.108 126.326 55.108C125.604 55.108 124.951 55.2663 124.369 55.583C123.799 55.887 123.349 56.3113 123.02 56.856C122.703 57.4007 122.545 58.034 122.545 58.756C122.545 59.478 122.703 60.1177 123.02 60.675C123.349 61.2197 123.799 61.6503 124.369 61.967C124.951 62.271 125.604 62.423 126.326 62.423ZM135.191 64V54.025H136.483V56.742L136.35 56.267C136.628 55.507 137.097 54.9307 137.756 54.538C138.414 54.1327 139.231 53.93 140.207 53.93V55.241C140.156 55.241 140.105 55.241 140.055 55.241C140.004 55.2283 139.953 55.222 139.903 55.222C138.851 55.222 138.028 55.545 137.433 56.191C136.837 56.8243 136.54 57.73 136.54 58.908V64H135.191ZM148.177 64V61.796L148.12 61.435V57.749C148.12 56.9003 147.879 56.248 147.398 55.792C146.929 55.336 146.226 55.108 145.289 55.108C144.643 55.108 144.029 55.2157 143.446 55.431C142.863 55.6463 142.369 55.9313 141.964 56.286L141.356 55.279C141.863 54.8483 142.471 54.519 143.18 54.291C143.889 54.0503 144.637 53.93 145.422 53.93C146.714 53.93 147.708 54.253 148.405 54.899C149.114 55.5323 149.469 56.5013 149.469 57.806V64H148.177ZM144.738 64.095C143.991 64.095 143.338 63.9747 142.781 63.734C142.236 63.4807 141.818 63.1387 141.527 62.708C141.236 62.2647 141.09 61.758 141.09 61.188C141.09 60.6687 141.21 60.2 141.451 59.782C141.704 59.3513 142.11 59.0093 142.667 58.756C143.237 58.49 143.997 58.357 144.947 58.357H148.386V59.364H144.985C144.022 59.364 143.351 59.535 142.971 59.877C142.604 60.219 142.42 60.6433 142.42 61.15C142.42 61.72 142.642 62.176 143.085 62.518C143.528 62.86 144.149 63.031 144.947 63.031C145.707 63.031 146.359 62.86 146.904 62.518C147.461 62.1633 147.867 61.6567 148.12 60.998L148.424 61.929C148.171 62.5877 147.727 63.1133 147.094 63.506C146.473 63.8987 145.688 64.095 144.738 64.095ZM158.225 53.93C159.036 53.93 159.745 54.0883 160.353 54.405C160.974 54.709 161.455 55.1777 161.797 55.811C162.152 56.4443 162.329 57.2423 162.329 58.205V64H160.98V58.338C160.98 57.2867 160.714 56.495 160.182 55.963C159.663 55.4183 158.928 55.146 157.978 55.146C157.269 55.146 156.648 55.2917 156.116 55.583C155.597 55.8617 155.191 56.2733 154.9 56.818C154.621 57.35 154.482 57.996 154.482 58.756V64H153.133V54.025H154.425V56.761L154.216 56.248C154.533 55.526 155.039 54.9623 155.736 54.557C156.433 54.139 157.262 53.93 158.225 53.93ZM165.973 64V54.025H167.322V64H165.973ZM166.657 51.821C166.378 51.821 166.144 51.726 165.954 51.536C165.764 51.346 165.669 51.118 165.669 50.852C165.669 50.586 165.764 50.3643 165.954 50.187C166.144 49.997 166.378 49.902 166.657 49.902C166.935 49.902 167.17 49.9907 167.36 50.168C167.55 50.3453 167.645 50.567 167.645 50.833C167.645 51.1117 167.55 51.346 167.36 51.536C167.182 51.726 166.948 51.821 166.657 51.821ZM175.217 64.095C174.229 64.095 173.343 63.8797 172.557 63.449C171.785 63.0057 171.177 62.404 170.733 61.644C170.29 60.8713 170.068 59.991 170.068 59.003C170.068 58.0023 170.29 57.122 170.733 56.362C171.177 55.602 171.785 55.0067 172.557 54.576C173.343 54.1453 174.229 53.93 175.217 53.93C176.066 53.93 176.832 54.0947 177.516 54.424C178.2 54.7533 178.739 55.2473 179.131 55.906L178.124 56.59C177.782 56.0833 177.358 55.7097 176.851 55.469C176.345 55.2283 175.794 55.108 175.198 55.108C174.489 55.108 173.849 55.2727 173.279 55.602C172.709 55.9187 172.26 56.3683 171.93 56.951C171.601 57.5337 171.436 58.2177 171.436 59.003C171.436 59.7883 171.601 60.4723 171.93 61.055C172.26 61.6377 172.709 62.0937 173.279 62.423C173.849 62.7397 174.489 62.898 175.198 62.898C175.794 62.898 176.345 62.7777 176.851 62.537C177.358 62.2963 177.782 61.929 178.124 61.435L179.131 62.119C178.739 62.765 178.2 63.259 177.516 63.601C176.832 63.9303 176.066 64.095 175.217 64.095ZM188.032 64V61.796L187.975 61.435V57.749C187.975 56.9003 187.735 56.248 187.253 55.792C186.785 55.336 186.082 55.108 185.144 55.108C184.498 55.108 183.884 55.2157 183.301 55.431C182.719 55.6463 182.225 55.9313 181.819 56.286L181.211 55.279C181.718 54.8483 182.326 54.519 183.035 54.291C183.745 54.0503 184.492 53.93 185.277 53.93C186.569 53.93 187.564 54.253 188.26 54.899C188.97 55.5323 189.324 56.5013 189.324 57.806V64H188.032ZM184.593 64.095C183.846 64.095 183.194 63.9747 182.636 63.734C182.092 63.4807 181.674 63.1387 181.382 62.708C181.091 62.2647 180.945 61.758 180.945 61.188C180.945 60.6687 181.066 60.2 181.306 59.782C181.56 59.3513 181.965 59.0093 182.522 58.756C183.092 58.49 183.852 58.357 184.802 58.357H188.241V59.364H184.84C183.878 59.364 183.206 59.535 182.826 59.877C182.459 60.219 182.275 60.6433 182.275 61.15C182.275 61.72 182.497 62.176 182.94 62.518C183.384 62.86 184.004 63.031 184.802 63.031C185.562 63.031 186.215 62.86 186.759 62.518C187.317 62.1633 187.722 61.6567 187.975 60.998L188.279 61.929C188.026 62.5877 187.583 63.1133 186.949 63.506C186.329 63.8987 185.543 64.095 184.593 64.095ZM193.121 64.095C192.843 64.095 192.602 63.9937 192.399 63.791C192.209 63.5883 192.114 63.3413 192.114 63.05C192.114 62.746 192.209 62.499 192.399 62.309C192.602 62.119 192.843 62.024 193.121 62.024C193.4 62.024 193.634 62.119 193.824 62.309C194.027 62.499 194.128 62.746 194.128 63.05C194.128 63.3413 194.027 63.5883 193.824 63.791C193.634 63.9937 193.4 64.095 193.121 64.095ZM197.015 64V54.025H198.307V56.742L198.174 56.267C198.452 55.507 198.921 54.9307 199.58 54.538C200.238 54.1327 201.055 53.93 202.031 53.93V55.241C201.98 55.241 201.929 55.241 201.879 55.241C201.828 55.2283 201.777 55.222 201.727 55.222C200.675 55.222 199.852 55.545 199.257 56.191C198.661 56.8243 198.364 57.73 198.364 58.908V64H197.015ZM208.764 64.095C207.915 64.095 207.174 63.9367 206.541 63.62C205.907 63.3033 205.413 62.8283 205.059 62.195C204.717 61.5617 204.546 60.77 204.546 59.82V54.025H205.895V59.668C205.895 60.732 206.154 61.5363 206.674 62.081C207.206 62.613 207.947 62.879 208.897 62.879C209.593 62.879 210.195 62.7397 210.702 62.461C211.221 62.1697 211.614 61.7517 211.88 61.207C212.158 60.6623 212.298 60.01 212.298 59.25V54.025H213.647V64H212.355V61.264L212.564 61.758C212.247 62.4927 211.753 63.069 211.082 63.487C210.423 63.8923 209.65 64.095 208.764 64.095Z" fill="#2A2A2A" fill-opacity="0.5"/>
<circle cx="42" cy="42" r="41.5" fill="white" stroke="#2A2A2A"/>
<circle cx="42" cy="42" r="36" fill="white" stroke="#FE0200" stroke-width="8"/>
<path d="M29.5383 56C27.6175 56 25.7098 55.7551 23.8153 55.2652C21.9207 54.7495 20.3156 54.0276 19 53.0994L21.4866 48.3039C22.5391 49.0516 23.7626 49.6446 25.1572 50.0829C26.5518 50.5212 27.9595 50.7403 29.3804 50.7403C30.9855 50.7403 32.2486 50.4309 33.1695 49.8122C34.0905 49.1934 34.5509 48.3425 34.5509 47.2597C34.5509 46.2284 34.1431 45.4162 33.3274 44.8232C32.5117 44.2302 31.196 43.9337 29.3804 43.9337H26.4597V39.7956L34.1562 31.2486L34.8667 33.4917H20.3814V28.4641H39.7214V32.5249L32.0644 41.0718L28.8279 39.2541H30.6829C34.0773 39.2541 36.6428 40.0018 38.3795 41.4972C40.1161 42.9926 40.9844 44.9134 40.9844 47.2597C40.9844 48.7808 40.5766 50.2118 39.7609 51.5525C38.9452 52.8674 37.6953 53.9374 36.0113 54.7624C34.3273 55.5875 32.1696 56 29.5383 56Z" fill="#2A2A2A"/>
<path d="M53.6461 28C56.1984 28 58.3956 28.5157 60.2375 29.547C62.0794 30.5783 63.5003 32.0866 64.5002 34.0718C65.5001 36.0313 66 38.4807 66 41.4199C66 44.5396 65.3948 47.1823 64.1844 49.3481C63.0003 51.5138 61.3558 53.1639 59.2507 54.2983C57.1457 55.4328 54.6986 56 51.9094 56C50.4622 56 49.0676 55.8453 47.7257 55.5359C46.3837 55.2265 45.226 54.7624 44.2524 54.1436L46.6205 49.5414C47.3836 50.0571 48.1993 50.418 49.0676 50.6243C49.936 50.8048 50.8438 50.895 51.791 50.895C54.1592 50.895 56.0406 50.186 57.4351 48.768C58.856 47.3499 59.5665 45.2486 59.5665 42.4641C59.5665 42 59.5533 41.4843 59.527 40.9171C59.5007 40.3499 59.4349 39.7827 59.3297 39.2155L61.0663 40.8398C60.619 41.8453 59.9875 42.6961 59.1718 43.3923C58.3561 44.0626 57.4088 44.5783 56.33 44.9392C55.2512 45.2744 54.0408 45.442 52.6988 45.442C50.9359 45.442 49.3308 45.0939 47.8836 44.3978C46.4627 43.7017 45.3181 42.7219 44.4497 41.4586C43.6077 40.1952 43.1867 38.7127 43.1867 37.011C43.1867 35.1547 43.6472 33.5562 44.5681 32.2155C45.5154 30.8748 46.7784 29.8435 48.3572 29.1215C49.9623 28.3738 51.7252 28 53.6461 28ZM54.0408 32.6796C53.1198 32.6796 52.3173 32.8471 51.6331 33.1823C50.949 33.4917 50.4096 33.9558 50.0149 34.5746C49.6202 35.1676 49.4229 35.8766 49.4229 36.7017C49.4229 37.9392 49.8439 38.9319 50.6859 39.6796C51.5542 40.4015 52.6988 40.7624 54.1197 40.7624C55.0407 40.7624 55.8564 40.5948 56.5668 40.2597C57.3036 39.8987 57.8693 39.4088 58.264 38.7901C58.6587 38.1713 58.856 37.4751 58.856 36.7017C58.856 35.9282 58.6587 35.2449 58.264 34.6519C57.8956 34.0331 57.3562 33.5562 56.6458 33.221C55.9353 32.86 55.067 32.6796 54.0408 32.6796Z" fill="#2A2A2A"/>
</svg>
