<svg width="42" height="42" viewBox="0 0 42 42" fill="none" xmlns="http://www.w3.org/2000/svg">
<path d="M3.57007 21C3.57007 11.3348 11.4031 3.5 21.0701 3.5C30.7336 3.5 38.5701 11.3348 38.5701 21C38.5701 30.6653 30.7336 38.5 21.0701 38.5C11.4031 38.5 3.57007 30.6653 3.57007 21Z" fill="#FC3F1D"/>
<path d="M23.3099 13.4155H21.6929C18.7284 13.4155 17.1692 14.917 17.1692 17.1307C17.1692 19.6332 18.2472 20.8057 20.4609 22.309L22.2897 23.541L17.0344 31.3932H13.1074L17.8237 24.3687C15.1112 22.4245 13.5887 20.5362 13.5887 17.3425C13.5887 13.3385 16.3799 10.605 21.6737 10.605H26.9289V31.374H23.3099V13.4155Z" fill="white"/>
</svg>
